<?xml version="1.0" standalone="no"?>
<!DOCTYPE svg PUBLIC "-//W3C//DTD SVG 20010904//EN"
 "http://www.w3.org/TR/2001/REC-SVG-20010904/DTD/svg10.dtd">
<svg version="1.0" xmlns="http://www.w3.org/2000/svg"
 width="500.000000pt" height="499.000000pt" viewBox="0 0 500.000000 499.000000"
 preserveAspectRatio="xMidYMid meet">

<g transform="translate(0.000000,499.000000) scale(0.100000,-0.100000)"
fill="#000000" stroke="none">
<path d="M2304 4980 c-503 -42 -978 -232 -1369 -547 -128 -103 -330 -310 -422
-434 -256 -341 -420 -739 -485 -1174 -17 -120 -17 -540 0 -660 68 -457 245
-872 521 -1220 84 -107 275 -298 386 -388 344 -278 762 -461 1208 -528 186
-28 504 -31 682 -5 563 81 1059 328 1441 718 124 126 153 159 237 270 189 253
343 582 417 893 56 235 65 318 64 595 0 274 -13 390 -69 610 -248 978 -1075
1715 -2080 1854 -139 19 -400 27 -531 16z m426 -41 c807 -73 1537 -556 1927
-1274 200 -369 295 -744 294 -1170 0 -563 -170 -1059 -520 -1515 -140 -183
-403 -422 -611 -555 -560 -359 -1261 -474 -1910 -314 -308 76 -632 232 -897
431 -115 86 -343 309 -433 423 -282 358 -455 767 -515 1220 -22 159 -22 461 0
620 133 992 825 1788 1790 2059 266 75 583 102 875 75z"/>
<path d="M2305 4880 c-417 -35 -826 -182 -1164 -417 -546 -381 -904 -954
-1008 -1613 -25 -162 -25 -548 0 -710 107 -678 480 -1260 1052 -1641 713 -477
1663 -525 2422 -124 679 359 1140 1005 1260 1767 25 160 25 547 0 708 -79 498
-302 947 -647 1304 -388 401 -882 648 -1429 715 -122 16 -370 21 -486 11z m90
-1825 c55 -96 102 -175 105 -175 3 0 50 79 105 175 66 116 106 175 117 175 11
0 86 -120 234 -377 302 -524 296 -513 290 -529 -5 -12 -116 -14 -748 -12 -736
3 -743 3 -742 23 0 18 68 138 406 723 66 113 106 172 117 172 10 0 51 -61 116
-175z m1022 -907 c-4 -29 -12 -120 -19 -202 l-12 -149 -31 -12 c-56 -23 -85
-27 -85 -11 0 11 -7 11 -44 -2 -41 -15 -47 -15 -79 0 -44 21 -71 76 -70 145 1
93 65 163 149 163 24 0 46 -5 49 -10 13 -22 25 3 25 54 0 51 1 54 33 64 17 5
45 10 61 11 l29 1 -6 -52z m-1649 -86 l57 -103 5 100 c3 55 7 102 10 104 3 3
24 8 48 12 l42 7 -1 -114 c-1 -62 -4 -147 -8 -188 -6 -71 -8 -75 -40 -97 -19
-13 -37 -23 -42 -23 -4 0 -33 42 -66 93 l-58 92 -10 -80 -10 -80 -42 -15 c-23
-8 -44 -12 -47 -9 -3 2 -1 47 4 99 9 99 13 217 8 259 -2 20 5 30 37 47 29 17
42 20 47 11 5 -7 34 -58 66 -115z m-629 30 l26 -84 37 76 c35 69 40 76 78 86
23 6 47 9 53 7 11 -3 55 -282 56 -359 1 -35 -1 -38 -40 -48 -28 -8 -45 -8 -52
-1 -5 5 -14 53 -20 106 -6 52 -14 94 -19 93 -4 -2 -30 -41 -56 -87 -26 -46
-51 -85 -57 -85 -5 -1 -22 35 -36 79 l-26 80 -23 -99 -23 -98 -35 6 c-50 8
-57 18 -44 68 6 24 18 76 26 116 42 195 48 213 70 222 47 20 58 9 85 -78z
m1137 -44 c-18 -134 -26 -222 -21 -237 4 -13 -5 -21 -32 -31 -21 -8 -41 -16
-45 -18 -5 -2 -8 4 -8 13 0 12 -5 15 -17 10 -72 -30 -73 -30 -110 -10 -55 30
-76 64 -77 128 -1 68 24 125 68 155 35 24 94 29 127 12 12 -7 19 -7 19 -1 0
10 27 17 73 20 28 1 28 0 23 -41z m212 19 c6 -5 12 -28 12 -50 0 -37 -1 -39
-17 -25 -28 24 -50 28 -70 12 -17 -14 -17 -16 12 -37 63 -47 85 -75 85 -107 0
-61 -94 -116 -162 -94 -30 9 -38 22 -38 62 l0 33 30 -16 c23 -12 35 -13 51 -4
20 10 19 13 -30 58 -41 38 -51 54 -51 79 0 77 118 136 178 89z m293 -27 c-6
-31 -11 -36 -45 -41 -20 -3 -44 -12 -51 -20 -8 -8 -17 -51 -22 -98 l-8 -83
-49 -20 c-27 -10 -52 -15 -57 -11 -7 8 5 191 16 260 6 33 12 37 78 49 30 5 37
3 37 -10 0 -14 3 -15 22 -5 32 17 72 27 80 20 4 -3 3 -22 -1 -41z m886 30 c1
0 14 -12 28 -27 65 -71 2 -163 -111 -163 -38 0 -45 -14 -15 -30 27 -14 66 -13
106 4 l35 15 0 -39 c0 -39 -1 -39 -52 -55 -66 -19 -84 -19 -134 4 -54 25 -84
73 -84 138 0 103 102 187 195 161 16 -4 31 -8 32 -8z m189 -27 c3 -21 11 -60
18 -87 l12 -48 33 86 33 87 41 -6 c23 -4 46 -11 51 -16 9 -8 -93 -240 -115
-264 -14 -14 -99 -33 -105 -23 -7 12 -74 259 -74 275 0 7 15 17 33 22 58 17
66 14 73 -26z m-2312 -209 c-1 -67 -7 -74 -64 -74 l-50 0 0 54 c0 52 1 55 28
59 15 2 41 4 57 3 28 -1 30 -3 29 -42z m1486 -44 l0 -30 -130 0 c-136 0 -147
4 -113 42 14 15 32 18 130 18 l113 0 0 -30z"/>
<path d="M2200 3023 c-40 -71 -88 -153 -105 -183 -74 -125 -253 -437 -264
-457 l-12 -23 193 0 193 0 133 231 133 232 -93 163 c-51 90 -95 164 -98 164
-3 0 -39 -57 -80 -127z"/>
<path d="M2622 2986 l-93 -164 91 -159 c51 -87 111 -190 134 -230 l41 -72 193
-1 c106 0 191 3 189 8 -51 89 -297 516 -363 630 -48 83 -90 152 -93 152 -3 0
-48 -74 -99 -164z"/>
<path d="M2442 2673 c-27 -49 -79 -139 -115 -200 l-66 -113 239 0 239 0 -86
148 c-47 81 -99 171 -115 200 -17 28 -33 52 -38 52 -4 0 -30 -39 -58 -87z"/>
<path d="M3211 1984 c-14 -18 -21 -41 -21 -70 0 -57 8 -74 35 -74 35 0 51 23
59 80 6 42 4 56 -10 71 -23 26 -39 24 -63 -7z"/>
<path d="M2095 1986 c-22 -33 -17 -125 8 -140 12 -8 22 -8 35 0 22 14 39 129
21 150 -18 21 -47 17 -64 -10z"/>
<path d="M3564 1985 c-21 -31 -14 -39 25 -30 39 8 61 33 40 46 -25 15 -48 10
-65 -16z"/>
</g>
</svg>
